# Blender v2.79 (sub 0) OBJ File: 'grafika.blend'
# www.blender.org
mtllib grafika2.mtl
o Plane.002_Plane.006
v 9.188871 -7.116899 3.472607
v 9.188872 9.255678 3.472607
v 9.188870 -7.116899 5.367879
v 9.188871 9.255678 5.367879
v 7.219456 -8.619574 3.472607
v 7.219458 7.753005 3.472607
v 7.219456 -8.619574 5.367879
v 7.219457 7.753005 5.367879
v 6.456642 -8.646120 3.366888
v 21.965496 -8.646119 3.366889
v 6.456642 -8.646120 5.473598
v 21.965496 -8.646119 5.473599
v 9.093107 -7.011622 3.472607
v 25.465687 -7.011621 3.472608
v 9.093107 -7.011622 5.367879
v 25.465687 -7.011621 5.367880
v -8.856918 7.703870 3.472606
v -8.856916 24.076448 3.472606
v -8.856918 7.703870 5.367878
v -8.856916 24.076448 5.367878
v -23.398806 25.595314 3.472605
v -7.026226 25.595314 3.472606
v -23.398809 25.595314 5.367877
v -7.026226 25.595314 5.367878
v -24.371027 23.995153 3.366886
v -8.862175 23.995153 3.366887
v -24.371027 23.995153 5.473597
v -8.862175 23.995153 5.473597
v -24.382307 23.868795 3.472605
v -24.382303 40.241375 3.472605
v -24.382307 23.868795 5.367877
v -24.382303 40.241375 5.367877
v 23.793663 -23.250580 3.472608
v 23.793663 -6.877999 3.472608
v 23.793663 -23.250580 5.367880
v 23.793663 -6.877999 5.367880
v -9.509420 7.741416 3.366887
v 7.240145 7.741416 3.366888
v -9.509420 7.741416 5.473597
v 7.240145 7.741416 5.473598
v -7.062033 9.231375 3.472606
v 9.310545 9.231376 3.472607
v -7.062033 9.231375 5.367878
v 9.310545 9.231376 5.367879
v -7.021544 9.245545 3.472606
v -7.021542 25.618124 3.472606
v -7.021544 9.245545 5.367878
v -7.021542 25.618124 5.367878
vt -0.000819 0.000086
vt 0.997022 -0.011820
vt 0.997022 0.994831
vt -0.002142 0.986894
vt 0.001827 0.003099
vt 0.998345 -0.004838
vt 1.000991 0.987923
vt -0.002142 0.989908
vt 0.998761 -0.003809
vt 0.998761 0.992740
vt -0.005041 0.994724
vt 0.001573 0.000160
vt 1.000247 -0.003809
vt 1.000247 0.997856
vt -0.004208 0.993887
vt 0.003729 0.002144
vt 0.004473 -0.001824
vt 0.999668 -0.007777
vt 1.000991 0.990937
vt -0.004787 0.992921
vt 0.996858 -0.007777
vt 1.004795 0.995872
vt -0.004951 0.993887
vt 0.000340 -0.003809
vt 1.002639 -0.009761
vt 0.999993 0.998694
vt 0.001483 0.990757
vt 0.000160 0.000160
vt 0.001827 -0.000944
vt 1.000991 -0.008881
vt 1.000991 0.987849
vt -0.000819 0.991818
vt 0.998665 0.999119
vt 0.997765 -0.000944
vt 0.997765 0.993802
vt -0.004044 0.991817
vt 0.000082 0.000082
vt 0.997348 0.000082
vt 0.992868 0.991981
vt 0.000082 0.999918
vt 0.000082 0.000082
vt 0.997348 0.000082
vt 0.992868 0.991981
vt 0.000082 0.999918
vt 0.000082 0.000082
vt 0.994703 0.004050
vt 0.997348 1.003887
vt 0.000082 0.999918
vn 1.0000 0.0000 0.0000
vn 0.0000 -1.0000 0.0000
usemtl Material.004
s off
f 1/1/1 2/2/1 4/3/1 3/4/1
usemtl Material.004_NONE
f 5/5/1 6/6/1 8/7/1 7/8/1
f 9/9/2 10/10/2 12/11/2 11/12/2
f 13/13/2 14/14/2 16/15/2 15/16/2
f 17/17/1 18/18/1 20/19/1 19/20/1
f 21/21/2 22/22/2 24/23/2 23/24/2
f 25/25/2 26/26/2 28/27/2 27/28/2
f 29/29/1 30/30/1 32/31/1 31/32/1
f 33/33/1 34/34/1 36/35/1 35/36/1
usemtl Material.002
f 37/37/2 38/38/2 40/39/2 39/40/2
f 41/41/2 42/42/2 44/43/2 43/44/2
usemtl Material.003
f 45/45/1 46/46/1 48/47/1 47/48/1
